<?xml version="1.0" encoding="UTF-8"?>
<svg width="24px" height="24px" viewBox="0 0 24 24" version="1.1" xmlns="http://www.w3.org/2000/svg" xmlns:xlink="http://www.w3.org/1999/xlink">
    <title>1-icon/01公共/02告警/remind</title>
    <g id="页面-1" stroke="none" stroke-width="1" fill="none" fill-rule="evenodd">
        <g id="画板" transform="translate(-250.000000, -504.000000)">
            <g id="编组备份-4" transform="translate(226.000000, 488.000000)">
                <g id="1-icon/01公共/02告警/remind" transform="translate(24.000000, 16.000000)">
                    <path d="M12,1.5 C6.2015625,1.5 1.5,6.2015625 1.5,12 C1.5,17.7984375 6.2015625,22.5 12,22.5 C17.7984375,22.5 22.5,17.7984375 22.5,12 C22.5,6.2015625 17.7984375,1.5 12,1.5 Z" id="路径" fill="#0077FF"></path>
                    <path d="M12.25,10.5 C12.5261424,10.5 12.75,10.7238576 12.75,11 L12.75,17.5 C12.75,17.7761424 12.5261424,18 12.25,18 L11.75,18 C11.4738576,18 11.25,17.7761424 11.25,17.5 L11.25,11 C11.25,10.7238576 11.4738576,10.5 11.75,10.5 L12.25,10.5 Z M12,6.75 C12.6210938,6.75 13.125,7.25390625 13.125,7.875 C13.125,8.49609375 12.6210938,9 12,9 C11.3789062,9 10.875,8.49609375 10.875,7.875 C10.875,7.25390625 11.3789062,6.75 12,6.75 Z" id="形状" fill="#FFFFFF"></path>
                </g>
            </g>
        </g>
    </g>
</svg>